Coordinates
version=1
nRows=13
nColumns=63
inDegrees=yes

Units are S.I. units (second, meters, Newtons, ...)
If the header above contains a line with 'inDegrees', this indicates whether rotational values are in degrees (yes) or radians (no).

endheader
time	pelvis_tilt	pelvis_list	pelvis_rotation	pelvis_tx	pelvis_ty	pelvis_tz	hip_flexion_r	hip_adduction_r	hip_rotation_r	knee_angle_r	knee_angle_r_beta	ankle_angle_r	subtalar_angle_r	mtp_angle_r	hip_flexion_l	hip_adduction_l	hip_rotation_l	knee_angle_l	knee_angle_l_beta	ankle_angle_l	subtalar_angle_l	mtp_angle_l	L5_S1_Flex_Ext	L5_S1_Lat_Bending	L5_S1_axial_rotation	L4_L5_Flex_Ext	L4_L5_Lat_Bending	L4_L5_axial_rotation	L3_L4_Flex_Ext	L3_L4_Lat_Bending	L3_L4_axial_rotation	L2_L3_Flex_Ext	L2_L3_Lat_Bending	L2_L3_axial_rotation	L1_L2_Flex_Ext	L1_L2_Lat_Bending	L1_L2_axial_rotation	L1_T12_Flex_Ext	L1_T12_Lat_Bending	L1_T12_axial_rotation	Abs_r3	Abs_r2	Abs_r1	Abs_t1	Abs_t2	neck_flexion	neck_bending	neck_rotation	arm_flex_r	arm_add_r	arm_rot_r	elbow_flex_r	pro_sup_r	wrist_flex_r	wrist_dev_r	arm_flex_l	arm_add_l	arm_rot_l	elbow_flex_l	pro_sup_l	wrist_flex_l	wrist_dev_l
1.333333	8.321070	3.473963	88.858646	0.120640	0.794594	0.821996	0.944333	4.993829	1.762544	5.719671	0.099827	23.033123	12.442123	0.000000	-0.443672	-4.315058	14.151841	5.577189	0.097340	18.866028	-11.192595	0.000000	-0.239685	0.622662	-1.061597	-0.445120	0.828140	-1.127947	-0.393779	1.513940	-1.127947	-0.273936	1.513940	-0.928897	-0.222572	1.269732	-0.862548	-0.136956	0.964503	-0.796198	-1.712049	7.043674	-5.904284	0.000000	0.000000	3.339721	2.765102	24.728715	64.516629	-32.971226	-1.395846	149.904028	89.956885	2.893827	-6.953824	7.559231	-18.993516	66.365369	28.076429	88.485838	-8.426977	6.814463
1.350000	8.112015	3.457467	88.343521	0.123546	0.795258	0.820948	0.635618	4.903102	3.232741	5.215748	0.091032	22.516333	11.318573	0.000000	-0.615917	-4.228599	13.758627	5.500659	0.096005	18.772046	-11.266168	0.000000	-0.240556	0.584932	-0.991334	-0.446737	0.777959	-1.053293	-0.395209	1.422203	-1.053293	-0.274931	1.422203	-0.867418	-0.223380	1.192793	-0.805459	-0.137454	0.906059	-0.743501	-1.718268	6.616866	-5.513504	0.000000	0.000000	3.580849	2.800941	23.549489	63.930258	-33.987249	-1.062077	149.902115	90.225985	-1.837379	-12.119713	8.052199	-19.353178	68.326332	27.838173	88.436465	-8.660970	6.479265
1.366667	7.970198	3.434970	87.840715	0.126308	0.795787	0.819547	0.308186	4.872203	4.814567	4.686548	0.081796	22.031491	10.034429	0.000000	-0.836446	-4.209312	13.440231	5.344954	0.093287	18.764352	-11.437783	0.000000	-0.241041	0.557702	-0.968182	-0.447637	0.741744	-1.028693	-0.396006	1.355997	-1.028693	-0.275485	1.355997	-0.847159	-0.223830	1.137266	-0.786648	-0.137731	0.863881	-0.726136	-1.721730	6.308839	-5.384736	0.000000	0.000000	3.949793	2.974292	22.588266	63.527897	-34.944243	-0.933411	149.900989	90.040927	-5.483827	-16.645784	8.098159	-19.563971	68.880015	27.741921	88.379393	-8.908290	6.129849
1.383333	7.886229	3.407132	87.362352	0.128937	0.796169	0.817853	-0.028391	4.893949	6.491088	4.143166	0.072312	21.604820	8.593007	0.000000	-1.102513	-4.248909	13.200477	5.103180	0.089067	18.836668	-11.715125	0.000000	-0.241924	0.539271	-0.999731	-0.449278	0.717231	-1.062214	-0.397457	1.311184	-1.062214	-0.276495	1.311184	-0.874765	-0.224651	1.099682	-0.812282	-0.138236	0.835331	-0.749798	-1.728041	6.100343	-5.560205	0.000000	0.000000	4.422034	3.308004	21.818997	63.290338	-35.805130	-0.937059	149.900816	89.622165	-8.303628	-20.542366	7.627629	-19.655485	67.890801	27.911050	88.332493	-9.157866	5.832587
1.400000	7.889836	3.360638	86.900905	0.131329	0.796386	0.815942	-0.351944	4.991973	8.175952	3.603769	0.062898	21.248408	7.134310	0.000000	-1.396499	-4.370729	13.035376	4.789314	0.083589	18.998614	-12.091786	0.000000	-0.243191	0.534962	-1.079369	-0.451630	0.711499	-1.146829	-0.399538	1.300706	-1.146829	-0.277943	1.300706	-0.944447	-0.225827	1.090894	-0.876987	-0.138959	0.828656	-0.809526	-1.737087	6.051595	-6.003124	0.000000	0.000000	4.990537	3.732928	21.217688	63.284735	-36.554333	-1.198265	149.901516	88.742532	-9.834984	-23.327522	6.711997	-19.594575	65.529243	28.245937	88.280657	-9.487176	5.411123
1.416667	7.972105	3.303862	86.458981	0.133461	0.796446	0.813947	-0.655975	5.156802	9.844516	3.090749	0.053944	20.954149	5.671641	0.000000	-1.717216	-4.560829	12.970261	4.412930	0.077020	19.197028	-12.606952	0.000000	-0.246814	0.544589	-1.202930	-0.458358	0.724303	-1.278113	-0.405490	1.324114	-1.278113	-0.282083	1.324114	-1.052564	-0.229191	1.110526	-0.977381	-0.141029	0.843568	-0.902197	-1.762966	6.160499	-6.690336	0.000000	0.000000	5.634910	4.181841	20.784337	63.520972	-37.160077	-1.671853	149.902922	87.545514	-10.206805	-24.966019	5.446191	-19.426018	62.072526	28.725920	88.239034	-9.834453	4.943916
1.433333	8.133164	3.230019	86.049484	0.135291	0.796339	0.811972	-0.922325	5.386062	11.391147	2.629454	0.045893	20.711795	4.298583	0.000000	-2.047110	-4.814277	12.996081	3.991206	0.069660	19.401301	-13.230439	0.000000	-0.251392	0.568900	-1.362885	-0.466860	0.756637	-1.448065	-0.413012	1.383223	-1.448065	-0.287316	1.383223	-1.192524	-0.233443	1.160101	-1.107344	-0.143645	0.881226	-1.022163	-1.795669	6.435509	-7.579955	0.000000	0.000000	6.307288	4.529834	20.466212	64.008345	-37.608918	-2.379865	149.905051	86.098001	-9.390848	-25.348975	3.969312	-19.185713	57.956811	29.266010	88.186821	-10.148524	4.392953
1.450000	8.349537	3.136401	85.670108	0.136901	0.796078	0.810132	-1.137343	5.658421	12.777995	2.235132	0.039010	20.502478	3.070692	0.000000	-2.362328	-5.107566	13.123147	3.559201	0.062120	19.582514	-13.943818	0.000000	-0.257890	0.602162	-1.546396	-0.478928	0.800875	-1.643045	-0.423688	1.464096	-1.643045	-0.294743	1.464096	-1.353096	-0.239477	1.227928	-1.256446	-0.147359	0.932748	-1.159797	-1.842086	6.811774	-8.600588	0.000000	0.000000	7.000158	4.841042	20.186445	64.637568	-37.969100	-3.347480	149.907541	84.367847	-7.546246	-24.821193	2.337436	-18.903228	53.334019	29.854456	88.157666	-10.538874	3.734283
1.466667	8.614597	3.027123	85.320628	0.138291	0.795681	0.808496	-1.298800	5.968970	13.959636	1.919608	0.033503	20.314223	2.019511	0.000000	-2.659883	-5.433390	13.310255	3.126429	0.054566	19.723903	-14.693113	0.000000	-0.266984	0.644874	-1.743217	-0.495816	0.857683	-1.852168	-0.438628	1.567948	-1.852168	-0.305136	1.567948	-1.525315	-0.247921	1.315028	-1.416364	-0.152555	0.998911	-1.307413	-1.907038	7.294949	-9.695252	0.000000	0.000000	7.663844	5.015576	20.016233	65.415702	-38.219751	-4.526481	149.910232	82.559535	-4.799013	-23.484578	0.700453	-18.599648	48.624641	30.418444	88.126120	-10.840238	3.019835
1.483333	8.914494	2.889763	85.000022	0.139519	0.795171	0.807087	-1.397311	6.310907	14.926597	1.673718	0.029212	20.132214	1.155636	0.000000	-2.915400	-5.784137	13.508364	2.711816	0.047330	19.842262	-15.394424	0.000000	-0.275780	0.695152	-1.938733	-0.512152	0.924552	-2.059904	-0.453080	1.690192	-2.059904	-0.315190	1.690192	-1.696391	-0.256090	1.417554	-1.575220	-0.157581	1.076790	-1.454050	-1.969872	7.863696	-10.782650	0.000000	0.000000	8.257054	5.018964	19.918136	66.257160	-38.439575	-5.762761	149.912780	80.754883	-1.675872	-21.667157	-0.814092	-18.273446	44.211483	30.884484	88.072028	-11.034711	2.239705
1.500000	9.222787	2.728162	84.699504	0.140636	0.794610	0.805921	-1.432702	6.660607	15.677973	1.498709	0.026157	19.961272	0.489635	0.000000	-3.123853	-6.135359	13.644770	2.323342	0.040550	19.918665	-16.000214	0.000000	-0.284136	0.748275	-2.120981	-0.527668	0.995206	-2.253543	-0.466806	1.819356	-2.253543	-0.324739	1.819356	-1.855859	-0.263848	1.525882	-1.723297	-0.162355	1.159078	-1.590736	-2.029552	8.464636	-11.796262	0.000000	0.000000	8.768320	4.881087	19.845766	67.093771	-38.658415	-6.961306	149.914639	78.902994	1.561681	-19.608252	-2.113340	-17.922653	40.391189	31.172768	87.967717	-11.156433	1.257070
1.516667	9.543610	2.542154	84.404990	0.141640	0.794016	0.805011	-1.407170	7.023093	16.222310	1.386035	0.024191	19.802546	0.041485	0.000000	-3.281496	-6.494516	13.687071	1.966634	0.034324	19.987193	-16.464530	0.000000	-0.291738	0.804615	-2.278165	-0.541787	1.070138	-2.420551	-0.479297	1.956341	-2.420551	-0.333428	1.956341	-1.993395	-0.270908	1.640771	-1.851009	-0.166699	1.246349	-1.708624	-2.083858	9.101967	-12.670473	0.000000	0.000000	9.190085	4.581154	19.729631	67.926617	-38.890744	-8.102826	149.915493	77.163090	4.788448	-17.429636	-3.134123	-17.528513	37.318103	31.309427	87.839567	-11.160862	0.274066
1.533333	9.870113	2.327803	84.107121	0.142561	0.793411	0.804346	-1.316624	7.393240	16.545090	1.333696	0.023277	19.664702	-0.144355	0.000000	-3.381214	-6.858090	13.631305	1.646691	0.028740	20.039498	-16.805075	0.000000	-0.296177	0.862420	-2.404387	-0.550030	1.147018	-2.554661	-0.486589	2.096888	-2.554661	-0.338500	2.096888	-2.103838	-0.275030	1.758647	-1.953564	-0.169235	1.335888	-1.803290	-2.115560	9.755866	-13.372478	0.000000	0.000000	9.480418	4.151000	19.532862	68.700366	-39.112020	-9.248116	149.915532	75.636826	8.072156	-15.182417	-3.893107	-17.112243	34.918723	31.363690	87.718218	-11.055334	-0.566538
